<mxfile host="app.diagrams.net" agent="Mozilla/5.0 (Windows NT 10.0; Win64; x64) AppleWebKit/537.36 (KHTML, like Gecko) Chrome/135.0.0.0 Safari/537.36 Edg/135.0.0.0" version="26.2.9">
  <diagram name="第 1 页" id="BmRawrikaMaC-c2cGwy-">
    <mxGraphModel dx="3618" dy="1295" grid="0" gridSize="10" guides="1" tooltips="1" connect="1" arrows="1" fold="1" page="0" pageScale="1" pageWidth="827" pageHeight="1169" math="0" shadow="0">
      <root>
        <mxCell id="0" />
        <mxCell id="1" parent="0" />
        <mxCell id="KcGNWE1ApuOhzu_MhVqk-84" value="路径与分析模块" style="whiteSpace=wrap;strokeWidth=2;verticalAlign=top;" vertex="1" parent="1">
          <mxGeometry x="1171" y="1176" width="303" height="356" as="geometry" />
        </mxCell>
        <mxCell id="KcGNWE1ApuOhzu_MhVqk-85" value="路线规划&#xa;（最短距离/最短时间）" style="whiteSpace=wrap;strokeWidth=2;" vertex="1" parent="KcGNWE1ApuOhzu_MhVqk-84">
          <mxGeometry x="46" y="43" width="228" height="78" as="geometry" />
        </mxCell>
        <mxCell id="KcGNWE1ApuOhzu_MhVqk-86" value="起点/终点选择" style="whiteSpace=wrap;strokeWidth=2;" vertex="1" parent="KcGNWE1ApuOhzu_MhVqk-84">
          <mxGeometry x="78" y="171" width="164" height="54" as="geometry" />
        </mxCell>
        <mxCell id="KcGNWE1ApuOhzu_MhVqk-87" value="路线高亮显示" style="whiteSpace=wrap;strokeWidth=2;" vertex="1" parent="KcGNWE1ApuOhzu_MhVqk-84">
          <mxGeometry x="82" y="275" width="156" height="54" as="geometry" />
        </mxCell>
        <mxCell id="KcGNWE1ApuOhzu_MhVqk-88" value="数据与管理模块" style="whiteSpace=wrap;strokeWidth=2;verticalAlign=top;" vertex="1" parent="1">
          <mxGeometry x="790" y="1188" width="331" height="332" as="geometry" />
        </mxCell>
        <mxCell id="KcGNWE1ApuOhzu_MhVqk-89" value="要素表查看" style="whiteSpace=wrap;strokeWidth=2;" vertex="1" parent="KcGNWE1ApuOhzu_MhVqk-88">
          <mxGeometry x="103" y="43" width="140" height="54" as="geometry" />
        </mxCell>
        <mxCell id="KcGNWE1ApuOhzu_MhVqk-90" value="批量导入（CSV/GeoJSON）" style="whiteSpace=wrap;strokeWidth=2;" vertex="1" parent="KcGNWE1ApuOhzu_MhVqk-88">
          <mxGeometry x="46" y="147" width="256" height="54" as="geometry" />
        </mxCell>
        <mxCell id="KcGNWE1ApuOhzu_MhVqk-91" value="数据导出/保存/加载" style="whiteSpace=wrap;strokeWidth=2;" vertex="1" parent="KcGNWE1ApuOhzu_MhVqk-88">
          <mxGeometry x="71" y="251" width="205" height="54" as="geometry" />
        </mxCell>
        <mxCell id="KcGNWE1ApuOhzu_MhVqk-92" value="要素与绘图模块" style="whiteSpace=wrap;strokeWidth=2;verticalAlign=top;" vertex="1" parent="1">
          <mxGeometry x="405" y="1088" width="335" height="532" as="geometry" />
        </mxCell>
        <mxCell id="KcGNWE1ApuOhzu_MhVqk-93" value="标注工具&#xa;（消防栓/水源点/消防车/着火点）" style="whiteSpace=wrap;strokeWidth=2;" vertex="1" parent="KcGNWE1ApuOhzu_MhVqk-92">
          <mxGeometry x="46" y="43" width="260" height="102" as="geometry" />
        </mxCell>
        <mxCell id="KcGNWE1ApuOhzu_MhVqk-94" value="图片标注" style="whiteSpace=wrap;strokeWidth=2;" vertex="1" parent="KcGNWE1ApuOhzu_MhVqk-92">
          <mxGeometry x="114" y="195" width="124" height="54" as="geometry" />
        </mxCell>
        <mxCell id="KcGNWE1ApuOhzu_MhVqk-95" value="绘图工具&#xa;（折线/圆形/矩形）" style="whiteSpace=wrap;strokeWidth=2;" vertex="1" parent="KcGNWE1ApuOhzu_MhVqk-92">
          <mxGeometry x="73" y="299" width="205" height="78" as="geometry" />
        </mxCell>
        <mxCell id="KcGNWE1ApuOhzu_MhVqk-96" value="要素编辑&#xa;（拖拽/顶点/缩放/删除）" style="whiteSpace=wrap;strokeWidth=2;" vertex="1" parent="KcGNWE1ApuOhzu_MhVqk-92">
          <mxGeometry x="53" y="427" width="245" height="78" as="geometry" />
        </mxCell>
        <mxCell id="KcGNWE1ApuOhzu_MhVqk-97" value="基础功能模块" style="whiteSpace=wrap;strokeWidth=2;verticalAlign=top;" vertex="1" parent="1">
          <mxGeometry x="20" y="1176" width="335" height="356" as="geometry" />
        </mxCell>
        <mxCell id="KcGNWE1ApuOhzu_MhVqk-98" value="地图浏览与操作" style="whiteSpace=wrap;strokeWidth=2;" vertex="1" parent="KcGNWE1ApuOhzu_MhVqk-97">
          <mxGeometry x="90" y="43" width="172" height="54" as="geometry" />
        </mxCell>
        <mxCell id="KcGNWE1ApuOhzu_MhVqk-99" value="图层管理" style="whiteSpace=wrap;strokeWidth=2;" vertex="1" parent="KcGNWE1ApuOhzu_MhVqk-97">
          <mxGeometry x="114" y="147" width="124" height="54" as="geometry" />
        </mxCell>
        <mxCell id="KcGNWE1ApuOhzu_MhVqk-100" value="地图切换（标准/卫星/地形）" style="whiteSpace=wrap;strokeWidth=2;" vertex="1" parent="KcGNWE1ApuOhzu_MhVqk-97">
          <mxGeometry x="46" y="251" width="260" height="78" as="geometry" />
        </mxCell>
        <mxCell id="KcGNWE1ApuOhzu_MhVqk-101" value="消防应急专题地图系统" style="whiteSpace=wrap;strokeWidth=2;" vertex="1" parent="1">
          <mxGeometry x="654" y="984" width="220" height="54" as="geometry" />
        </mxCell>
        <mxCell id="KcGNWE1ApuOhzu_MhVqk-102" value="" style="curved=1;startArrow=none;endArrow=block;exitX=0;exitY=0.68;entryX=0.5;entryY=0;rounded=0;fontSize=12;startSize=8;endSize=8;" edge="1" parent="1" source="KcGNWE1ApuOhzu_MhVqk-101" target="KcGNWE1ApuOhzu_MhVqk-97">
          <mxGeometry relative="1" as="geometry">
            <Array as="points">
              <mxPoint x="188" y="1063" />
            </Array>
          </mxGeometry>
        </mxCell>
        <mxCell id="KcGNWE1ApuOhzu_MhVqk-103" value="" style="curved=1;startArrow=none;endArrow=block;exitX=0.05;exitY=1;entryX=0.5;entryY=0;rounded=0;fontSize=12;startSize=8;endSize=8;" edge="1" parent="1" source="KcGNWE1ApuOhzu_MhVqk-101" target="KcGNWE1ApuOhzu_MhVqk-92">
          <mxGeometry relative="1" as="geometry">
            <Array as="points">
              <mxPoint x="573" y="1063" />
            </Array>
          </mxGeometry>
        </mxCell>
        <mxCell id="KcGNWE1ApuOhzu_MhVqk-104" value="" style="curved=1;startArrow=none;endArrow=block;exitX=0.95;exitY=1;entryX=0.5;entryY=0;rounded=0;fontSize=12;startSize=8;endSize=8;" edge="1" parent="1" source="KcGNWE1ApuOhzu_MhVqk-101" target="KcGNWE1ApuOhzu_MhVqk-88">
          <mxGeometry relative="1" as="geometry">
            <Array as="points">
              <mxPoint x="955" y="1063" />
            </Array>
          </mxGeometry>
        </mxCell>
        <mxCell id="KcGNWE1ApuOhzu_MhVqk-105" value="" style="curved=1;startArrow=none;endArrow=block;exitX=1;exitY=0.69;entryX=0.5;entryY=0;rounded=0;fontSize=12;startSize=8;endSize=8;" edge="1" parent="1" source="KcGNWE1ApuOhzu_MhVqk-101" target="KcGNWE1ApuOhzu_MhVqk-84">
          <mxGeometry relative="1" as="geometry">
            <Array as="points">
              <mxPoint x="1322" y="1063" />
            </Array>
          </mxGeometry>
        </mxCell>
      </root>
    </mxGraphModel>
  </diagram>
</mxfile>
